# xmcd CD database file
#
# Track frame offsets:
#	150
#	10883
#	23780
#	37598
#	50803
#	63230
#	75665
#	88030
#	100713
#	112528
#	124080
#	135268
#	145800
#	158103
#	169628
#
# Disc length: 2436 seconds
#
# Revision: 5
# Processed by: cddbd v1.5.1PL0 Copyright (c) Steve Scherf et al.
# Submitted via: CDex 1.51
#
DISCID=a909820f
DTITLE=Chris Connor - Sings Lullabys Of Birdland
DYEAR=1953
DGENRE=Misc
TTITLE0=Lullaby Of Birdland
TTITLE1=What Is There To Say
TTITLE2=Try A Little Tenderness
TTITLE3=Spring Is Here
TTITLE4=Why Shouldn't I
TTITLE5=Ask Me
TTITLE6=Blue Silhouette
TTITLE7=Chiquita From Chi-Wah-Wah
TTITLE8=A Cottage For Sale
TTITLE9=How Long Has This Been Going On
TTITLE10=Stella By Starlight
TTITLE11=Gone With The Wind
TTITLE12=He's Coming Home
TTITLE13=Goodbye
TTITLE14=Why Shouldn't I (Alt. Take 2)
EXTD=(Bethlehem 30052 reissue of LP Chris Connor Sings Lullabies of Birdland BCP-6004 [1955] ) As did the LP, this contains selections from Connor's first two 10" Bethlehem sessions as a leader plus three tracks with Sy Oliver\n\n[trk 1-5,15] BCP-1001 - 
EXTD=Chris Connor Sings Lullabys of Birdland - Chris Connor with Ellis larkins Trio [1954] \n\nTracks of original 10" LP: I Hear Music/What Is There To Say/Come Back To Sorrento/Why Shouldn't I//Lullabye Of\nBirdland/Try A Little Tenderness/All About Ron
EXTD=nie/Spring Is Here\n\nEllis Larkin Trio:\nEllis Larkin (p]\nEverett Barksdale (g]\nBeverly Peer (b]\n______________________\n\nSy Oliver Orchestra [trk 6-8]\n\nNo personnel listed\n______________________\n\n[trk 9-14] BCP-1002 - Chris Connor Sings L
EXTD=ullabys for Lovers - Chris Connor with Vinnie Burke Quartet [1954] \n\nTracks of original 10" LP: Lush Life/Out Of This World/A Cottage For Sale/How Long Has This Been Going On?//Goodbye/Stella By Starlight/Gone With The Wind/He's Coming Home [recor
EXTD=ded: 8/21/1954]\n\nVinnie Burke Quartet:\nRonny Oldrich (cl, fl]\nDon Burns (accordion]\nJoe Cinderella (g]\nVinnie Burke (b]\nArt Mardigan (d]\n\nCDDB submission by RememberClifford\nhttp://tinpan.fortunecity.com/bluenote/500/index.html YEAR: 1953
EXTT0=
EXTT1=
EXTT2=
EXTT3=
EXTT4=
EXTT5=
EXTT6=
EXTT7=
EXTT8=
EXTT9=
EXTT10=
EXTT11=
EXTT12=
EXTT13=
EXTT14=
PLAYORDER=
